<?xml version="1.0" encoding="UTF-8"?>
<!DOCTYPE svg PUBLIC "-//W3C//DTD SVG 1.1//EN" "http://www.w3.org/Graphics/SVG/1.1/DTD/svg11.dtd">
<!-- Creator: CorelDRAW -->
<svg xmlns="http://www.w3.org/2000/svg" xml:space="preserve" width="30px" height="30px" style="shape-rendering:geometricPrecision; text-rendering:geometricPrecision; image-rendering:optimizeQuality; fill-rule:evenodd; clip-rule:evenodd"
viewBox="0 0 12.306 15.1441"
 xmlns:xlink="http://www.w3.org/1999/xlink">
 <defs>
  <style type="text/css">
   <![CDATA[
    .str0 {stroke:#33CC99;stroke-width:0.165483}
    .fil0 {fill:#33CC99}
   ]]>
  </style>
 </defs>
 <g id="Camada_x0020_1">
  <metadata id="CorelCorpID_0Corel-Layer"/>
  <g id="_274103792">
   <polygon id="_120841832" class="fil0 str0" points="10.3896,0.122611 10.5983,0.167077 10.7937,0.233683 10.9758,0.322522 11.1446,0.424588 11.2999,0.548982 11.442,0.691105 11.5708,0.850959 11.6907,1.02413 11.7929,1.21504 11.8905,1.42377 11.9705,1.64582 12.0416,1.88119 12.0993,2.12988 12.1437,2.3919 12.1792,2.67164 12.2058,2.95589 12.2192,3.25346 12.2236,3.56425 12.2148,3.88406 12.1969,4.21268 12.1659,4.55011 12.1259,4.89656 12.077,5.25182 12.0193,5.61149 11.9483,5.98007 11.8728,6.35307 11.784,6.73497 11.6862,7.11688 11.5797,7.50769 11.4643,7.89851 11.3444,8.29373 11.2111,8.68896 8.91523,8.68896 9.04403,8.39589 9.16393,8.10274 9.27931,7.80967 9.38598,7.5122 9.48804,7.21463 9.58129,6.92147 9.67013,6.6284 9.75006,6.33534 9.82117,6.04668 9.88336,5.75802 9.94546,5.47828 9.99434,5.19854 10.0388,4.92761 10.0743,4.66119 10.1009,4.40358 10.1186,4.15048 10.132,3.9107 10.1365,3.67523 10.132,3.45328 10.1231,3.23563 10.1009,3.03582 10.0743,2.84041 10.0388,2.66282 9.99434,2.49847 9.94106,2.34743 9.88336,2.2054 9.81225,2.08551 9.73674,1.97894 9.64799,1.8901 9.55474,1.81459 9.44808,1.7613 9.3371,1.72134 9.21721,1.6991 9.084,1.68578 8.94628,1.68578 8.79975,1.69029 8.64431,1.70351 8.48445,1.73016 8.3201,1.76571 8.14692,1.81018 7.96934,1.86787 7.78284,1.93448 7.59634,2.00999 7.40534,2.09883 7.20994,2.19649 7.01012,2.30306 6.8103,2.42295 6.60598,2.55175 6.40175,2.69388 6.19743,2.84932 5.98871,3.01358 5.78448,3.18676 5.57575,3.37776 5.37143,3.57758 5.1672,3.7863 4.96288,4.00836 4.76306,4.24814 4.56325,4.49242 4.36784,4.75443 4.17684,5.02977 3.99034,5.31392 3.80826,5.61149 3.63067,5.92229 3.4575,6.2465 3.1377,6.2465 3.30646,5.88683 3.47964,5.53597 3.66623,5.19403 3.85713,4.8565 4.05254,4.52788 4.25677,4.21268 4.47,3.90179 4.68314,3.60422 4.90519,3.31115 5.13165,3.03141 5.35811,2.76489 5.59348,2.50738 5.83335,2.25869 6.07314,2.02332 6.31292,1.80126 6.55711,1.58813 6.80589,1.38821 7.05008,1.20181 7.29878,1.02854 7.54747,0.86869 7.79607,0.722157 8.04485,0.593354 8.28904,0.473464 8.53774,0.371304 8.77752,0.282465 9.01739,0.21145 9.25717,0.158165 9.49255,0.113793 9.72351,0.0915595 9.94987,0.0826475 10.172,0.0959686 "/>
   <polygon id="_120841664" class="fil0 str0" points="1.91656,15.026 1.70774,14.9771 1.51242,14.9105 1.33033,14.8262 1.16598,14.7196 1.01053,14.5952 0.863999,14.4532 0.73529,14.2977 0.6154,14.1201 0.51324,13.9291 0.419992,13.7204 0.335562,13.4984 0.264547,13.263 0.206759,13.0143 0.162387,12.7523 0.126832,12.477 0.10019,12.1883 0.086869,11.8907 0.0824598,11.5799 0.0913719,11.2601 0.109102,10.9315 0.140154,10.5941 0.180211,10.2477 0.228993,9.89246 0.286686,9.5327 0.357795,9.16411 0.433313,8.79112 0.522058,8.41363 0.619809,8.02731 0.726378,7.6409 0.841766,7.24568 0.96175,6.85045 1.09496,6.45523 3.39089,6.45523 3.26209,6.74829 3.1422,7.04136 3.02672,7.33902 2.92015,7.63209 2.81799,7.92956 2.72474,8.22263 2.6359,8.52019 2.56038,8.81335 2.48496,9.10201 2.42276,9.38616 2.36507,9.67041 2.31169,9.94575 2.27182,10.2166 2.23627,10.483 2.20512,10.7406 2.18739,10.9937 2.17407,11.238 2.16966,11.4689 2.17407,11.6954 2.18298,11.9086 2.20512,12.1128 2.23176,12.3038 2.26732,12.4815 2.31169,12.6501 2.36507,12.8012 2.42276,12.9388 2.49378,13.0587 2.5693,13.1653 2.65813,13.2586 2.75138,13.3296 2.85795,13.3873 2.96893,13.4228 3.08891,13.4451 3.22213,13.4584 3.35975,13.4628 3.50628,13.454 3.66172,13.4407 3.82158,13.4139 3.98593,13.3785 4.15911,13.3341 4.33679,13.2763 4.52328,13.2141 4.70978,13.1342 4.90069,13.0499 5.09609,12.9521 5.296,12.8411 5.49582,12.7212 5.70005,12.5924 5.90437,12.4503 6.1086,12.2994 6.31733,12.135 6.52165,11.9574 6.73037,11.7708 6.9346,11.571 7.13892,11.3579 7.34315,11.1358 7.54297,10.9005 7.74288,10.6518 7.93828,10.3898 8.12919,10.1189 8.31569,9.83026 8.49777,9.5327 8.67545,9.2219 8.84863,8.89769 9.16833,8.89769 8.99957,9.25736 8.82639,9.60821 8.6399,9.95456 8.4489,10.2876 8.25358,10.6162 8.04926,10.936 7.83612,11.2424 7.62299,11.5444 7.40094,11.833 7.17438,12.1128 6.94792,12.3793 6.71255,12.6413 6.47727,12.8855 6.23299,13.1209 5.99321,13.3473 5.74892,13.5561 5.50023,13.756 5.25595,13.9425 5.00735,14.1156 4.75866,14.2755 4.50996,14.422 4.26127,14.5552 4.01699,14.6707 3.7727,14.7729 3.52851,14.8617 3.28873,14.9327 3.04895,14.9904 2.81358,15.0304 2.58262,15.0526 2.35616,15.0615 2.13411,15.0526 "/>
  </g>
 </g>
</svg>
